HIERARCHY
ROOT Hips
{
	OFFSET 0.000000 0.000000 0.000000
	CHANNELS 6 Xposition Yposition Zposition Zrotation Yrotation Xrotation 
	JOINT LHipJoint
	{
		OFFSET 0.000000 0.000000 0.000000
		CHANNELS 3 Zrotation Yrotation Xrotation
		JOINT LeftUpLeg
		{
			OFFSET 1.363060 -1.794630 0.839290
			CHANNELS 3 Zrotation Yrotation Xrotation
			JOINT LeftLeg
			{
				OFFSET 2.448110 -6.726130 0.000000
				CHANNELS 3 Zrotation Yrotation Xrotation
				JOINT LeftFoot
				{
					OFFSET 2.562200 -7.039590 0.000000
					CHANNELS 3 Zrotation Yrotation Xrotation
					JOINT LeftToeBase
					{
						OFFSET 0.157640 -0.433110 2.322550
						CHANNELS 3 Zrotation Yrotation Xrotation
						End Site
						{
							OFFSET 0.000000 0.000000 0.000000
						}
					}
				}
			}
		}
	}
	JOINT RHipJoint
	{
		OFFSET 0.000000 0.000000 0.000000
		CHANNELS 3 Zrotation Yrotation Xrotation
		JOINT RightUpLeg
		{
			OFFSET -1.305520 -1.794630 0.839290
			CHANNELS 3 Zrotation Yrotation Xrotation
			JOINT RightLeg
			{
				OFFSET -2.542530 -6.985550 0.000000
				CHANNELS 3 Zrotation Yrotation Xrotation
				JOINT RightFoot
				{
					OFFSET -2.568260 -7.056230 0.000000
					CHANNELS 3 Zrotation Yrotation Xrotation
					JOINT RightToeBase
					{
						OFFSET -0.164730 -0.452590 2.363150
						CHANNELS 3 Zrotation Yrotation Xrotation
						End Site
						{
							OFFSET 0.000000 0.000000 0.000000
						}
					}
				}
			}
		}
	}
	JOINT LowerBack
	{
		OFFSET 0.000000 0.000000 0.000000
		CHANNELS 3 Zrotation Yrotation Xrotation
		JOINT Spine
		{
			OFFSET 0.028270 2.035590 -0.193380
			CHANNELS 3 Zrotation Yrotation Xrotation
			JOINT Spine1
			{
				OFFSET 0.056720 2.048850 -0.042750
				CHANNELS 3 Zrotation Yrotation Xrotation
				JOINT Neck
				{
					OFFSET 0.000000 0.000000 0.000000
					CHANNELS 3 Zrotation Yrotation Xrotation
					JOINT Neck1
					{
						OFFSET -0.054170 1.746240 0.172020
						CHANNELS 3 Zrotation Yrotation Xrotation
						JOINT Head
						{
							OFFSET 0.104070 1.761360 -0.123970
							CHANNELS 3 Zrotation Yrotation Xrotation
							End Site
							{
								OFFSET 0.000000 0.000000 0.000000
							}
						}
					}
				}
				JOINT LeftShoulder
				{
					OFFSET 0.000000 0.000000 0.000000
					CHANNELS 3 Zrotation Yrotation Xrotation
					JOINT LeftArm
					{
						OFFSET 3.362410 1.200890 -0.311210
						CHANNELS 3 Zrotation Yrotation Xrotation
						JOINT LeftForeArm
						{
							OFFSET 4.983000 -0.000000 -0.000000
							CHANNELS 3 Zrotation Yrotation Xrotation
							JOINT LeftHand
							{
								OFFSET 3.483560 -0.000000 -0.000000
								CHANNELS 3 Zrotation Yrotation Xrotation
								JOINT LeftFingerBase
								{
									OFFSET 0.000000 0.000000 0.000000
									CHANNELS 3 Zrotation Yrotation Xrotation
									JOINT LeftHandIndex1
									{
										OFFSET 0.715260 -0.000000 -0.000000
										CHANNELS 3 Zrotation Yrotation Xrotation
										End Site
										{
											OFFSET 0.000000 0.000000 0.000000
										}
									}
								}
								JOINT LThumb
								{
									OFFSET 0.000000 0.000000 0.000000
									CHANNELS 3 Zrotation Yrotation Xrotation
									End Site
									{
										OFFSET 0.000000 0.000000 0.000000
									}
								}
							}
						}
					}
				}
				JOINT RightShoulder
				{
					OFFSET 0.000000 0.000000 0.000000
					CHANNELS 3 Zrotation Yrotation Xrotation
					JOINT RightArm
					{
						OFFSET -3.136600 1.374050 -0.404650
						CHANNELS 3 Zrotation Yrotation Xrotation
						JOINT RightForeArm
						{
							OFFSET -5.241900 -0.000000 -0.000000
							CHANNELS 3 Zrotation Yrotation Xrotation
							JOINT RightHand
							{
								OFFSET -3.444170 -0.000000 -0.000000
								CHANNELS 3 Zrotation Yrotation Xrotation
								JOINT RightFingerBase
								{
									OFFSET 0.000000 0.000000 0.000000
									CHANNELS 3 Zrotation Yrotation Xrotation
									JOINT RightHandIndex1
									{
										OFFSET -0.622530 -0.000000 -0.000000
										CHANNELS 3 Zrotation Yrotation Xrotation
										End Site
										{
											OFFSET 0.000000 0.000000 0.000000
										}
									}
								}
								JOINT RThumb
								{
									OFFSET 0.000000 0.000000 0.000000
									CHANNELS 3 Zrotation Yrotation Xrotation
									End Site
									{
										OFFSET 0.000000 0.000000 0.000000
									}
								}
							}
						}
					}
				}
			}
		}
	}
}
MOTION
Frames: 8
Frame Time: 0.008333
5.327510 15.484707 1.469136 0.498895 60.954763 27.617116 -8.507862 -0.544716 -5.599488 -16.064327 9.407313 -51.792391 -1.817196 4.462243 63.049948 3.350309 12.012513 -30.824422 -5.335700 0.000000 -39.119200 11.847058 2.960728 -4.076019 6.310352 -3.840233 -57.412775 -2.031904 -6.981733 85.503895 -1.373598 -4.560191 -20.216715 1.029200 -0.000000 -42.423600 -3.674894 -2.153341 13.157653 -1.381287 -1.808631 -0.169178 -5.241072 -1.644360 -1.087972 3.928029 -5.598069 -3.101037 -2.162870 -0.188686 0.743172 0.000000 0.000000 0.000000 2.622517 4.402999 0.690959 -55.493464 -23.850319 -1.149576 -179.454730 -83.447240 179.946715 5.304601 7.421317 0.340745 -0.186711 0.340717 -0.000000 0.000000 0.000000 0.000000 0.000000 0.000000 0.000000 1.359475 -2.443024 0.626413 80.143315 -15.536343 16.689228 -0.024451 78.050343 -0.078064 -18.957294 5.461610 -0.970834 0.180177 -0.300289 -0.000000 0.000000 0.000000 0.000000 0.000000 0.000000 0.000000 
5.462037 15.556485 1.542363 0.475873 60.695863 27.453580 -8.544068 -0.469715 -5.686152 -15.843708 9.811391 -50.326999 -1.890870 4.335872 61.864209 3.298531 12.032249 -30.209012 -5.202400 0.000000 -40.193300 11.700829 3.015639 -3.954628 6.768190 -3.471162 -58.154955 -1.810298 -6.897796 83.979047 -1.394627 -4.487555 -20.280053 1.031301 -0.000000 -43.011600 -3.467641 -2.280308 13.156808 -1.348783 -1.949942 -0.132962 -5.253947 -1.785278 -0.985404 4.035775 -6.087158 -3.095561 -2.161015 -0.189238 0.750077 0.000000 0.000000 0.000000 3.238652 4.389728 0.574738 -54.454333 -24.796179 -1.955381 -179.450106 -83.135746 179.947628 5.223896 7.153956 0.322224 -0.181133 0.352447 -0.000000 0.000000 0.000000 0.000000 0.000000 0.000000 0.000000 1.508498 -3.072220 0.582876 79.551751 -16.755674 17.165712 -0.008792 78.708487 -0.074829 -18.446739 5.981837 -1.030004 0.175058 -0.301962 -0.000000 0.000000 0.000000 0.000000 0.000000 0.000000 0.000000 
5.598857 15.634766 1.619126 0.460787 60.401990 27.318085 -8.578345 -0.390832 -5.753813 -15.608188 10.188845 -48.826317 -1.960711 4.196479 60.559141 3.235505 12.033114 -29.440204 -5.024200 0.000001 -41.336600 11.551897 3.052979 -3.818107 7.225216 -3.086294 -58.814120 -1.575298 -6.797471 82.268591 -1.426508 -4.472839 -20.275754 1.037000 0.000000 -43.611800 -3.265094 -2.389768 13.118766 -1.313864 -2.073458 -0.107291 -5.254526 -1.909569 -0.883295 4.126636 -6.590423 -3.095431 -2.154921 -0.189526 0.756395 0.000000 0.000000 0.000000 3.828513 4.393406 0.451760 -53.469067 -25.543521 -2.735131 -179.448993 -82.804864 179.948045 5.201323 6.959912 0.311002 -0.176390 0.361864 -0.000000 0.000000 0.000000 0.000000 0.000000 0.000000 0.000000 1.620572 -3.705125 0.532451 78.986401 -17.911327 17.594966 0.006316 79.354760 -0.071663 -17.925036 6.463927 -1.077578 0.170139 -0.303530 -0.000000 0.000000 0.000000 0.000000 0.000000 0.000000 0.000000 
5.738423 15.718742 1.699127 0.443080 60.078386 27.206509 -8.613515 -0.308459 -5.798696 -15.355635 10.533222 -47.317026 -2.023378 4.048049 59.163822 3.161992 12.016858 -28.520712 -4.802700 0.000000 -42.569300 11.398357 3.071420 -3.666193 7.690429 -2.689248 -59.390754 -1.329597 -6.679826 80.376379 -1.468519 -4.512446 -20.194648 1.044100 0.000000 -44.189201 -3.057603 -2.483776 13.038394 -1.274052 -2.181456 -0.093741 -5.242498 -2.019624 -0.782567 4.196830 -7.097063 -3.099326 -2.145347 -0.189611 0.762570 0.000000 0.000000 0.000000 4.387528 4.409097 0.324174 -52.558669 -26.090281 -3.475114 -179.449968 -82.443382 179.948070 5.222509 6.829745 0.305479 -0.172441 0.369134 -0.000000 0.000000 0.000000 0.000000 0.000000 0.000000 0.000000 1.693346 -4.330835 0.477991 78.453674 -19.002859 17.973656 0.020210 79.968789 -0.068632 -17.428814 6.875084 -1.111254 0.165899 -0.304494 -0.000000 0.000000 0.000000 0.000000 0.000000 0.000000 0.000000 
5.880974 15.807529 1.782208 0.416471 59.730942 27.117659 -8.651995 -0.222770 -5.819287 -15.086245 10.843380 -45.825861 -2.076165 3.895116 57.709499 3.078175 11.982790 -27.450845 -4.538200 0.000000 -43.920100 11.239003 3.069846 -3.498874 8.171213 -2.282946 -59.884685 -1.075539 -6.544283 78.305089 -1.518979 -4.597458 -20.028506 1.048900 -0.000000 -44.712200 -2.838231 -2.564489 12.913210 -1.227771 -2.276341 -0.093474 -5.218454 -2.117919 -0.685262 4.246237 -7.596714 -3.106558 -2.133568 -0.189578 0.768800 0.000000 0.000000 0.000000 4.916802 4.429869 0.194474 -51.742295 -26.435858 -4.165556 -179.451296 -82.037622 179.947880 5.267144 6.746018 0.303558 -0.169079 0.374632 -0.000000 0.000000 0.000000 0.000000 0.000000 0.000000 0.000000 1.730352 -4.938551 0.422127 77.955561 -20.033973 18.300289 0.032509 80.542287 -0.065799 -16.988077 7.192838 -1.130930 0.162740 -0.304536 -0.000000 0.000000 0.000000 0.000000 0.000000 0.000000 0.000000 
6.026660 15.900351 1.868147 0.374731 59.365422 27.047576 -8.696444 -0.133818 -5.816790 -14.799841 11.126262 -44.375149 -2.117634 3.742584 56.225020 2.983371 11.925830 -26.229131 -4.230201 -0.000000 -45.420000 11.072817 3.047193 -3.317600 8.675058 -1.871702 -60.291156 -0.814377 -6.390366 76.054419 -1.575106 -4.712679 -19.772654 1.046700 0.000000 -45.149700 -2.599310 -2.634092 12.745759 -1.173937 -2.360444 -0.104985 -5.185600 -2.206555 -0.588371 4.275918 -8.087769 -3.122238 -2.120363 -0.189384 0.773482 0.000000 0.000000 0.000000 5.395259 4.474997 0.068428 -51.006687 -26.625034 -4.788210 -179.451299 -81.586420 179.947617 5.316757 6.695953 0.303537 -0.166257 0.378680 -0.000000 0.000000 0.000000 0.000000 0.000000 0.000000 0.000000 1.736811 -5.527515 0.365013 77.487434 -20.997294 18.590267 0.042955 81.069471 -0.063237 -16.633117 7.411227 -1.139206 0.161054 -0.303537 -0.000000 0.000000 0.000000 0.000000 0.000000 0.000000 0.000000 
6.175167 15.996142 1.956968 0.324887 58.990216 27.007350 -8.746586 -0.041376 -5.793600 -14.504888 11.384107 -42.990797 -2.146568 3.594531 54.740493 2.877387 11.841288 -24.853165 -3.879000 -0.000000 -47.098501 10.901171 3.004154 -3.121731 9.198390 -1.455848 -60.615446 -0.548164 -6.218746 73.627399 -1.633906 -4.843349 -19.421190 1.032600 0.000000 -45.501700 -2.347066 -2.695506 12.536617 -1.113740 -2.437051 -0.130586 -5.143288 -2.288985 -0.501354 4.295748 -8.557557 -3.142304 -2.108548 -0.189276 0.777780 0.000000 0.000000 0.000000 5.874325 4.507011 -0.057082 -50.417165 -26.605767 -5.352588 -179.448383 -81.067383 179.947620 5.340621 6.630171 0.301319 -0.163162 0.382421 -0.000000 0.000000 0.000000 0.000000 0.000000 0.000000 0.000000 1.731166 -6.083082 0.310429 77.045228 -21.911199 18.830335 0.051741 81.571044 -0.060949 -16.358492 7.519942 -1.135781 0.160784 -0.301509 -0.000000 0.000000 0.000000 0.000000 0.000000 0.000000 0.000000 
6.326451 16.094234 2.048515 0.264157 58.610347 26.987677 -8.805112 0.054948 -5.755625 -14.199493 11.636935 -41.677671 -2.164231 3.455237 53.273670 2.758128 11.714666 -23.320710 -3.484001 0.000000 -48.971200 10.724122 2.939844 -2.915958 9.747991 -1.044804 -60.841620 -0.276049 -6.029063 71.020286 -1.691067 -4.967120 -18.978579 1.002201 0.000000 -45.745301 -2.074470 -2.750408 12.297572 -1.046926 -2.507765 -0.165067 -5.097254 -2.366196 -0.415754 4.307414 -9.016715 -3.177802 -2.097608 -0.189027 0.778223 0.000000 0.000000 0.000000 6.306336 4.570817 -0.173387 -49.915771 -26.471882 -5.836262 -179.441198 -80.493675 179.947915 5.329641 6.552312 0.296601 -0.159989 0.385892 -0.000000 0.000000 0.000000 0.000000 0.000000 0.000000 0.000000 1.716473 -6.618193 0.256089 76.621010 -22.753641 19.053426 0.058802 82.041799 -0.058999 -16.184386 7.543755 -1.126753 0.162120 -0.298694 -0.000000 0.000000 0.000000 0.000000 0.000000 0.000000 0.000000 
